<svg xmlns="http://www.w3.org/2000/svg" xmlns:xlink="http://www.w3.org/1999/xlink" width="22" height="19.473" viewBox="0 0 22 19.473">
  <defs>
    <clipPath id="clip-path">
      <rect id="Rechteck_38" data-name="Rechteck 38" width="22" height="19.473" fill="#fff"/>
    </clipPath>
  </defs>
  <g id="Gruppe_32" data-name="Gruppe 32" clip-path="url(#clip-path)">
    <path id="Pfad_16" data-name="Pfad 16" d="M4.9,4.374A13.9,13.9,0,0,0,6.242,9.714a10.549,10.549,0,0,0,4.747,4.945,9.937,9.937,0,0,0,3.978-3.495H10.593a6.853,6.853,0,0,1-2.242-4.4H21.363a19.9,19.9,0,0,1-3.3,7.429,15.6,15.6,0,0,1-7.011,5.275h-.132a15.992,15.992,0,0,1-8.769-8.2A26.616,26.616,0,0,1,0,0H22a33.809,33.809,0,0,1-.286,4.4H4.9Z" fill="#fff"/>
  </g>
</svg>
