<svg xmlns="http://www.w3.org/2000/svg" width="22" height="21.457" viewBox="0 0 22 21.457">
  <path id="Pfad_17" data-name="Pfad 17" d="M147.319,107.44a11,11,0,0,0-3.476,21.438c.55.1.751-.238.751-.53,0-.261-.009-.953-.015-1.871-3.06.665-3.705-1.474-3.705-1.474a2.913,2.913,0,0,0-1.222-1.609c-1-.683.076-.669.076-.669a2.31,2.31,0,0,1,1.685,1.133,2.342,2.342,0,0,0,3.2.914,2.352,2.352,0,0,1,.7-1.471c-2.443-.278-5.011-1.221-5.011-5.437a4.253,4.253,0,0,1,1.132-2.952,3.952,3.952,0,0,1,.108-2.911s.923-.3,3.025,1.128a10.431,10.431,0,0,1,5.508,0c2.1-1.423,3.022-1.128,3.022-1.128a3.953,3.953,0,0,1,.11,2.911,4.245,4.245,0,0,1,1.13,2.952c0,4.226-2.572,5.156-5.023,5.428a2.626,2.626,0,0,1,.747,2.037c0,1.471-.014,2.657-.014,3.018,0,.294.2.636.756.529a11,11,0,0,0-3.484-21.437Z" transform="translate(-136.32 -107.44)" fill="#fff" fill-rule="evenodd"/>
</svg>
