<svg id="logo" xmlns="http://www.w3.org/2000/svg" width="106.638" height="40" viewBox="0 0 106.638 40">
  <path id="Pfad_2" data-name="Pfad 2" d="M32.61,16.305A16.313,16.313,0,0,0,16.305,0H0V16.305a16.305,16.305,0,1,0,32.61,0Z" fill="#fff" fill-rule="evenodd"/>
  <path id="Pfad_3" data-name="Pfad 3" d="M57.882,23.779h5.97v2.952H54.8V11.078h3.086Z" transform="translate(-17.006 -3.438)" fill="#fff"/>
  <path id="Pfad_4" data-name="Pfad 4" d="M70.47,11.078h3.086V26.731H70.47Z" transform="translate(-21.87 -3.438)" fill="#fff"/>
  <path id="Pfad_5" data-name="Pfad 5" d="M94.365,18.764a7.835,7.835,0,0,1-1.923,5.277l1.61,1.677-2.192,1.945-1.7-1.767A7.971,7.971,0,0,1,86.226,26.9a8.056,8.056,0,0,1-8.117-8.14,8.128,8.128,0,1,1,16.257,0Zm-8.14,5.121a5.487,5.487,0,0,0,1.744-.291L85.4,20.91l2.191-1.945,2.75,2.862a5.211,5.211,0,0,0,.939-3.064,5,5,0,0,0-1.454-3.69,5.185,5.185,0,0,0-7.2,0,5,5,0,0,0-1.453,3.69,4.972,4.972,0,0,0,1.453,3.667A4.89,4.89,0,0,0,86.226,23.884Z" transform="translate(-24.241 -3.297)" fill="#fff"/>
  <path id="Pfad_6" data-name="Pfad 6" d="M110.6,27.044a6.259,6.259,0,0,1-4.293-1.476,5.009,5.009,0,0,1-1.677-3.958V11.078h3.063V21.364a2.678,2.678,0,0,0,.693,1.945,3.018,3.018,0,0,0,2.214.716,2.938,2.938,0,0,0,2.192-.716,2.631,2.631,0,0,0,.715-1.945V11.078h3.086V21.61a5.009,5.009,0,0,1-1.677,3.958A6.292,6.292,0,0,1,110.6,27.044Z" transform="translate(-32.472 -3.438)" fill="#fff"/>
  <path id="Pfad_7" data-name="Pfad 7" d="M126.009,11.078h3.086V26.731h-3.086Z" transform="translate(-39.106 -3.438)" fill="#fff"/>
  <path id="Pfad_8" data-name="Pfad 8" d="M140.9,11.078a7.1,7.1,0,0,1,5.366,2.258,7.729,7.729,0,0,1,2.169,5.568,7.729,7.729,0,0,1-2.169,5.568,7.1,7.1,0,0,1-5.366,2.258h-6.217V11.078Zm0,12.7a4.357,4.357,0,0,0,3.309-1.342,4.967,4.967,0,0,0,1.274-3.533,4.887,4.887,0,0,0-1.274-3.511A4.321,4.321,0,0,0,140.9,14.03h-3.131v9.75Z" transform="translate(-41.799 -3.438)" fill="#fff"/>
  <path id="Pfad_9" data-name="Pfad 9" d="M88.95,41.924a3.11,3.11,0,0,1,3.032-2.745h39.206a2.448,2.448,0,0,1,2.486,2.745l-.745,7.49a3.11,3.11,0,0,1-3.032,2.745H90.69A2.447,2.447,0,0,1,88.2,49.414Z" transform="translate(-27.37 -12.159)" fill="#4677ff"/>
  <path id="Pfad_10" data-name="Pfad 10" d="M103,47.635a1.289,1.289,0,0,1,.686,1.193,1.4,1.4,0,0,1-.47,1.088,1.657,1.657,0,0,1-1.155.425H99.846V45.123H101.9a1.6,1.6,0,0,1,1.126.417,1.341,1.341,0,0,1,.462,1.051A1.271,1.271,0,0,1,103,47.635Zm-1.1-1.55h-1.028v1.148H101.9a.522.522,0,0,0,.4-.164.555.555,0,0,0,.164-.41.571.571,0,0,0-.157-.41A.532.532,0,0,0,101.9,46.085Zm.157,3.295a.587.587,0,0,0,.432-.171.62.62,0,0,0,.172-.447.586.586,0,0,0-.172-.432.574.574,0,0,0-.432-.179h-1.185v1.23Z" transform="translate(-30.987 -14.004)" fill="#fff"/>
  <path id="Pfad_11" data-name="Pfad 11" d="M110.673,49.616a2.717,2.717,0,1,1,0-3.854,2.744,2.744,0,0,1,0,3.854Zm-3.123-.7a1.749,1.749,0,0,0,2.4,0,1.8,1.8,0,0,0,0-2.46,1.729,1.729,0,0,0-2.4,0,1.8,1.8,0,0,0,0,2.46Z" transform="translate(-32.91 -13.957)" fill="#fff"/>
  <path id="Pfad_12" data-name="Pfad 12" d="M116.822,50.445a2.086,2.086,0,0,1-1.431-.492,1.67,1.67,0,0,1-.559-1.319V45.123h1.021v3.429a.893.893,0,0,0,.231.648,1.006,1.006,0,0,0,.738.239.978.978,0,0,0,.73-.239.875.875,0,0,0,.239-.648V45.123h1.029v3.511a1.67,1.67,0,0,1-.559,1.319A2.1,2.1,0,0,1,116.822,50.445Z" transform="translate(-35.638 -14.004)" fill="#fff"/>
  <path id="Pfad_13" data-name="Pfad 13" d="M124.977,45.123h1.028v5.218h-.783l-2.236-3.19v3.19h-1.029V45.123h.783l2.237,3.183Z" transform="translate(-37.849 -14.004)" fill="#fff"/>
  <path id="Pfad_14" data-name="Pfad 14" d="M131.6,50.4a2.609,2.609,0,0,1-1.946-.783,2.811,2.811,0,0,1,0-3.861,2.768,2.768,0,0,1,3.25-.447,2.393,2.393,0,0,1,.939.894l-.887.514a1.356,1.356,0,0,0-.552-.544,1.614,1.614,0,0,0-.8-.2,1.65,1.65,0,0,0-1.23.477,1.878,1.878,0,0,0,0,2.467,1.8,1.8,0,0,0,2.035.283,1.354,1.354,0,0,0,.552-.544l.887.514a2.464,2.464,0,0,1-.932.9A2.679,2.679,0,0,1,131.6,50.4Z" transform="translate(-39.999 -13.957)" fill="#fff"/>
  <path id="Pfad_15" data-name="Pfad 15" d="M138.017,49.357h2.2v.984h-3.228V45.123h3.19v.984h-2.161v1.111h1.975v.969h-1.975Z" transform="translate(-42.514 -14.004)" fill="#fff"/>
</svg>
