<svg xmlns="http://www.w3.org/2000/svg" width="22" height="22.001" viewBox="0 0 22 22.001">
  <g id="settings" fill="none">
    <path d="M20.794,8.612,19.07,8.392a8.663,8.663,0,0,0-.522-1.26l1.064-1.37A1.363,1.363,0,0,0,19.5,3.948L18.057,2.5a1.366,1.366,0,0,0-1.82-.116L14.869,3.452a8.632,8.632,0,0,0-1.26-.522L13.389,1.21A1.373,1.373,0,0,0,12.027,0H9.974A1.373,1.373,0,0,0,8.612,1.207L8.392,2.931a8.532,8.532,0,0,0-1.26.522L5.762,2.388A1.364,1.364,0,0,0,3.948,2.5L2.5,3.943a1.367,1.367,0,0,0-.116,1.821l1.064,1.37a8.562,8.562,0,0,0-.522,1.26L1.21,8.612A1.373,1.373,0,0,0,0,9.974v2.053a1.373,1.373,0,0,0,1.207,1.362l1.723.219a8.663,8.663,0,0,0,.522,1.26l-1.064,1.37A1.363,1.363,0,0,0,2.5,18.053L3.944,19.5a1.367,1.367,0,0,0,1.82.116l1.37-1.064a8.463,8.463,0,0,0,1.26.522l.219,1.72A1.373,1.373,0,0,0,9.974,22h2.053a1.373,1.373,0,0,0,1.362-1.207l.219-1.723a8.663,8.663,0,0,0,1.26-.522l1.37,1.064a1.363,1.363,0,0,0,1.814-.112L19.5,18.057a1.365,1.365,0,0,0,.116-1.82l-1.064-1.37a8.463,8.463,0,0,0,.522-1.26l1.72-.219A1.373,1.373,0,0,0,22,12.027V9.974a1.371,1.371,0,0,0-1.206-1.362ZM11,15.584C8.473,15.584,6.417,11,6.417,11S8.473,6.417,11,6.417a4.584,4.584,0,0,1,0,9.167Z" stroke="none"/>
    <path d="M 9.973721504211426 1.000001907348633 C 9.785490989685059 1.000001907348633 9.626710891723633 1.140342712402344 9.60438060760498 1.326431274414062 L 9.603521347045898 1.333402633666992 L 9.304410934448242 3.686222076416016 L 8.700871467590332 3.881931304931641 C 8.312850952148438 4.00775146484375 7.938461303710938 4.162612915039062 7.588090896606445 4.342201232910156 L 7.021270751953125 4.63275146484375 L 5.149080276489258 3.177862167358398 C 5.061380386352539 3.109752655029297 4.971750259399414 3.095462799072266 4.91200065612793 3.095462799072266 C 4.856611251831055 3.095462799072266 4.750980377197266 3.108541488647461 4.665971755981445 3.196182250976562 L 4.655120849609375 3.207181930541992 L 3.200860977172852 4.660371780395508 C 3.069850921630859 4.787502288818359 3.060121536254883 4.998191833496094 3.177621841430664 5.149702072143555 L 4.63275146484375 7.022192001342773 L 4.342201232910156 7.589012145996094 C 4.16278076171875 7.939051628112793 4.00786018371582 8.313331604003906 3.88176155090332 8.701432228088379 L 3.685861587524414 9.30433177947998 L 1.328710556030273 9.604432106018066 C 1.141321182250977 9.626832008361816 1.000001907348633 9.785592079162598 1.000001907348633 9.973722457885742 L 1.000001907348633 12.02714157104492 C 1.000001907348633 12.21537208557129 1.140340805053711 12.37415218353271 1.326450347900391 12.39648246765137 L 1.333400726318359 12.39734172821045 L 3.685811996459961 12.69640159606934 L 3.88176155090332 13.29943180084229 C 4.006460189819336 13.68324184417725 4.161661148071289 14.05805206298828 4.343021392822266 14.41346168518066 L 4.631870269775391 14.97947216033936 L 3.177711486816406 16.85196304321289 C 3.060171127319336 17.00327301025391 3.067811965942383 17.21060180664062 3.195480346679688 17.33423233032227 L 3.206951141357422 17.34551239013672 L 4.660621643066406 18.7993221282959 C 4.749290466308594 18.89052200317383 4.856771469116211 18.90414237976074 4.91295051574707 18.90414237976074 C 4.97273063659668 18.90414237976074 5.062591552734375 18.88974189758301 5.149700164794922 18.82232284545898 L 7.022191047668457 17.36719131469727 L 7.589011192321777 17.65774154663086 C 7.943290710449219 17.83934211730957 8.316970825195312 17.99406242370605 8.699661254882812 18.11762237548828 L 9.304121017456055 18.31278228759766 L 9.604471206665039 20.67062187194824 C 9.626911163330078 20.8588924407959 9.785660743713379 21.00086212158203 9.973721504211426 21.00086212158203 L 12.02713108062744 21.00086212158203 C 12.21536064147949 21.00086212158203 12.37414073944092 20.86052131652832 12.39647102355957 20.6744327545166 L 12.39733123779297 20.66745185852051 L 12.69640064239502 18.31509208679199 L 13.29938125610352 18.11913299560547 C 13.68325138092041 17.99438095092773 14.05808067321777 17.83918190002441 14.41347122192383 17.65783309936523 L 14.9794807434082 17.3690013885498 L 16.85197067260742 18.82315254211426 C 16.93986129760742 18.89144134521484 17.02946090698242 18.90577125549316 17.08915138244629 18.90577125549316 C 17.14437103271484 18.90577125549316 17.24964141845703 18.89273262023926 17.33423042297363 18.80537223815918 L 17.34552001953125 18.79390144348145 L 18.79999160766602 17.33960151672363 C 18.93077087402344 17.21268272399902 18.94051170349121 17.00237274169922 18.82324028015137 16.85116195678711 L 17.36811065673828 14.97867202758789 L 17.65866088867188 14.41185188293457 C 17.84026145935059 14.05757141113281 17.99498176574707 13.68389225006104 18.1185417175293 13.30120182037354 L 18.31370162963867 12.69674205780029 L 20.67121124267578 12.3964319229126 C 20.85862159729004 12.37403202056885 20.99995040893555 12.21527194976807 20.99995040893555 12.02714157104492 L 20.99995040893555 9.972412109375 C 21.00020027160645 9.78490161895752 20.8602409362793 9.626682281494141 20.67441177368164 9.604381561279297 L 20.66745185852051 9.603522300720215 L 18.31506156921387 9.304462432861328 L 18.11911010742188 8.701452255249023 C 17.9943904876709 8.317631721496582 17.83919143676758 7.942802429199219 17.6578311920166 7.58739185333252 L 17.3690013885498 7.021382331848145 L 18.82314109802246 5.148902893066406 C 18.9406909942627 4.997592926025391 18.93305206298828 4.790252685546875 18.80536079406738 4.66661262512207 L 18.79390144348145 4.655342102050781 L 17.33894157409668 3.200191497802734 C 17.25102996826172 3.109441757202148 17.14386177062988 3.095891952514648 17.08782196044922 3.095891952514648 C 17.02803039550781 3.095891952514648 16.93817138671875 3.110282897949219 16.85142135620117 3.177421569824219 L 14.98078155517578 4.632072448730469 L 14.41437149047852 4.343021392822266 C 14.05863094329834 4.161491394042969 13.68370151519775 4.006362915039062 13.2999906539917 3.881931304931641 L 12.6965913772583 3.686262130737305 L 12.39642143249512 1.328712463378906 C 12.37402153015137 1.141321182250977 12.21526145935059 1.000001907348633 12.02713108062744 1.000001907348633 L 9.973721504211426 1.000001907348633 M 11.00043106079102 16.58394241333008 C 7.914751052856445 16.58394241333008 5.742101669311523 11.93933200836182 5.504520416259766 11.4097318649292 L 5.320911407470703 11.00043201446533 L 5.504520416259766 10.59113216400146 C 5.742101669311523 10.06153202056885 7.914751052856445 5.416921615600586 11.00043106079102 5.416921615600586 C 14.07919120788574 5.416921615600586 16.58394050598145 7.921671867370605 16.58394050598145 11.00043201446533 C 16.58394050598145 14.07919216156006 14.07919120788574 16.58394241333008 11.00043106079102 16.58394241333008 M 9.973721504211426 1.9073486328125e-06 L 12.02713108062744 1.9073486328125e-06 C 12.7210807800293 1.9073486328125e-06 13.30685138702393 0.5197715759277344 13.38935089111328 1.210042953491211 L 13.6084508895874 2.930692672729492 C 14.046630859375 3.072782516479492 14.46831130981445 3.247871398925781 14.86891174316406 3.452302932739258 L 16.23755073547363 2.388011932373047 C 16.79307174682617 1.958072662353516 17.57594108581543 2.00758171081543 18.05721092224121 2.504432678222656 L 19.50101089477539 3.948232650756836 C 19.9932804107666 4.424922943115234 20.043701171875 5.207782745361328 19.61285018920898 5.762392044067383 L 18.54856109619141 7.132862091064453 C 18.75298118591309 7.533461570739746 18.92807006835938 7.955142021179199 19.07016181945801 8.392412185668945 L 20.79357147216797 8.611501693725586 C 21.4810905456543 8.694011688232422 22.0008602142334 9.279782295227051 21.99995040893555 9.973722457885742 L 21.99995040893555 12.02714157104492 C 21.99995040893555 12.72108173370361 21.48018074035645 13.30685234069824 20.78990173339844 13.38936233520508 L 19.07017135620117 13.60845184326172 C 18.92899131774902 14.04572200775146 18.7539005279541 14.4674015045166 18.54856109619141 14.86800193786621 L 19.61285018920898 16.23755264282227 C 20.043701171875 16.79308319091797 19.9932804107666 17.57502174377441 19.49643135070801 18.05721282958984 L 18.05262184143066 19.50101280212402 C 17.57594108581543 19.99328231811523 16.79306983947754 20.043701171875 16.23847198486328 19.61285209655762 L 14.86800098419189 18.54856109619141 C 14.4674015045166 18.75298118591309 14.04571151733398 18.92807197570801 13.6084508895874 19.07017135620117 L 13.38935089111328 20.79357147216797 C 13.30685138702393 21.48109245300293 12.7210807800293 22.00086212158203 12.02713108062744 22.00086212158203 L 9.973721504211426 22.00086212158203 C 9.279781341552734 22.00086212158203 8.694001197814941 21.48109245300293 8.61150074005127 20.78898239135742 L 8.392411231994629 19.06925201416016 C 7.955141067504883 18.92807197570801 7.53346061706543 18.75298118591309 7.132861137390137 18.54764175415039 L 5.763311386108398 19.6119327545166 C 5.207794189453125 20.0418701171875 4.42584228515625 19.99236297607422 3.94365119934082 19.49643135070801 L 2.499841690063477 18.05262184143066 C 2.007570266723633 17.57594299316406 1.957160949707031 16.79307174682617 2.388011932373047 16.23847198486328 L 3.452301025390625 14.86800193786621 C 3.247871398925781 14.4674015045166 3.072780609130859 14.04572200775146 2.930700302124023 13.60845184326172 L 1.207290649414062 13.38936233520508 C 0.5197715759277344 13.30685234069824 1.9073486328125e-06 12.72108173370361 1.9073486328125e-06 12.02714157104492 L 1.9073486328125e-06 9.973722457885742 C 1.9073486328125e-06 9.279782295227051 0.5197715759277344 8.694002151489258 1.210041046142578 8.611501693725586 L 2.930700302124023 8.392412185668945 C 3.072780609130859 7.955142021179199 3.24696159362793 7.533461570739746 3.452301025390625 7.132862091064453 L 2.388011932373047 5.763311386108398 C 1.957160949707031 5.207782745361328 2.007570266723633 4.424922943115234 2.504430770874023 3.942741394042969 L 3.948240280151367 2.499851226806641 C 4.425840377807617 2.007583618164062 5.208700180053711 1.958072662353516 5.76239013671875 2.388011932373047 L 7.131940841674805 3.452302932739258 C 7.532541275024414 3.24696159362793 7.954231262207031 3.072782516479492 8.392411231994629 2.930692672729492 L 8.61150074005127 1.207292556762695 C 8.694001197814941 0.5197715759277344 9.279781341552734 1.9073486328125e-06 9.973721504211426 1.9073486328125e-06 Z M 11.00043106079102 15.58394241333008 C 13.52778148651123 15.58394241333008 15.58394050598145 13.52778244018555 15.58394050598145 11.00043201446533 C 15.58394050598145 8.473081588745117 13.52778148651123 6.416921615600586 11.00043106079102 6.416921615600586 C 8.473080635070801 6.416921615600586 6.41692066192627 11.00043201446533 6.41692066192627 11.00043201446533 C 6.41692066192627 11.00043201446533 8.473080635070801 15.58394241333008 11.00043106079102 15.58394241333008 Z" stroke="none" fill="#fff"/>
  </g>
</svg>
