<svg xmlns="http://www.w3.org/2000/svg" xmlns:xlink="http://www.w3.org/1999/xlink" width="22" height="21.043" viewBox="0 0 22 21.043">
  <defs>
    <clipPath id="clip-path">
      <rect id="Rechteck_33" data-name="Rechteck 33" width="22" height="21.043" transform="translate(-0.273 0.364)" fill="#fff" stroke="#707070" stroke-width="1"/>
    </clipPath>
  </defs>
  <g id="Gruppe_maskieren_2" data-name="Gruppe maskieren 2" transform="translate(0.273 -0.364)" clip-path="url(#clip-path)">
    <path id="YouTube" d="M-5.169-56.341a54.662,54.662,0,0,1-7.986-.418,3.261,3.261,0,0,1-1.3-.717,2.579,2.579,0,0,1-.794-1.228,17.257,17.257,0,0,1-.38-3.241c-.046-1.076-.037-1.961-.037-1.97s-.01-.894.037-1.97a17.259,17.259,0,0,1,.38-3.242,2.583,2.583,0,0,1,.789-1.228,3.23,3.23,0,0,1,1.31-.717c1.527-.4,7.09-.417,8.189-.417h.232c.017,0,1.732,0,3.633.056a32.261,32.261,0,0,1,4.914.389,2.724,2.724,0,0,1,1.932,1.918,18.335,18.335,0,0,1,.408,3.241c.06,1.076.064,1.961.064,1.97s0,.895-.057,1.975a17.844,17.844,0,0,1-.4,3.236,2.61,2.61,0,0,1-.775,1.228,3.141,3.141,0,0,1-1.3.718c-1.526.4-7.087.417-8.188.417h-.669ZM-6.832-67.279h0v6.726l5.461-3.363Z" transform="translate(15.759 74.826)" fill="#fff"/>
  </g>
</svg>
